<svg width="16" height="16" viewBox="0 0 16 16" fill="none" xmlns="http://www.w3.org/2000/svg">
<rect width="16" height="16" rx="4" fill="#1E293B"/>
<path fill-rule="evenodd" clip-rule="evenodd" d="M6.61658 4.35227C6.58394 4.23049 6.50426 4.12667 6.39509 4.06365C6.28592 4.00063 6.15618 3.98357 6.03443 4.01622C5.91268 4.04887 5.80888 4.12856 5.74587 4.23775C5.68286 4.34695 5.66581 4.47671 5.69845 4.59848L5.82153 5.05764C5.85418 5.17942 5.93385 5.28324 6.04302 5.34626C6.1522 5.40928 6.28193 5.42634 6.40368 5.39369C6.52543 5.36104 6.62923 5.28135 6.69224 5.17216C6.75525 5.06296 6.77231 4.9332 6.73966 4.81143L6.61658 4.35227ZM4.60021 5.69694C4.53982 5.68048 4.47677 5.67611 4.41469 5.68408C4.3526 5.69206 4.29271 5.71222 4.23844 5.74342C4.18417 5.77461 4.13659 5.81622 4.09845 5.86586C4.0603 5.91549 4.03233 5.97218 4.01615 6.03266C3.99997 6.09314 3.9959 6.15622 4.00416 6.21827C4.01242 6.28033 4.03286 6.34015 4.0643 6.39428C4.09574 6.44842 4.13757 6.49581 4.18737 6.53373C4.23717 6.57165 4.29398 6.59936 4.35452 6.61526L4.81358 6.73837C4.93512 6.77029 5.06434 6.75277 5.17299 6.68964C5.28164 6.62651 5.36088 6.52291 5.39336 6.40151C5.42584 6.2801 5.40893 6.15077 5.34632 6.0418C5.28371 5.93284 5.1805 5.85311 5.05927 5.82005L4.60021 5.69694ZM8.78882 5.42649C8.83295 5.38233 8.86794 5.3299 8.8918 5.27222C8.91567 5.21453 8.92794 5.1527 8.92792 5.09027C8.9279 5.02784 8.91558 4.96602 8.89168 4.90835C8.86777 4.85068 8.83274 4.79828 8.78859 4.75415C8.74443 4.71002 8.69202 4.67502 8.63434 4.65115C8.57667 4.62728 8.51486 4.615 8.45244 4.61502C8.39002 4.61505 8.32821 4.62736 8.27055 4.65128C8.21289 4.67519 8.1605 4.71023 8.11638 4.75439L7.7804 5.09044C7.73625 5.1346 7.70122 5.18703 7.67733 5.24473C7.65343 5.30243 7.64113 5.36427 7.64113 5.42673C7.64113 5.48918 7.65343 5.55102 7.67733 5.60872C7.70122 5.66642 7.73625 5.71885 7.7804 5.76301C7.82455 5.80718 7.87697 5.84221 7.93466 5.86611C7.99235 5.89001 8.05418 5.90231 8.11662 5.90231C8.17906 5.90231 8.24089 5.89001 8.29858 5.86611C8.35627 5.84221 8.40869 5.80718 8.45284 5.76301L8.78882 5.42649ZM5.42852 8.78794L5.7645 8.45189C5.85374 8.36276 5.90392 8.24183 5.90401 8.1157C5.9041 7.98957 5.85409 7.86857 5.76498 7.77931C5.67587 7.69006 5.55497 7.63987 5.42886 7.63978C5.30275 7.63969 5.18177 7.68971 5.09254 7.77884L4.75608 8.11489C4.66691 8.20408 4.61682 8.32504 4.61682 8.45118C4.61682 8.57731 4.66691 8.69827 4.75608 8.78746C4.84525 8.87665 4.9662 8.92676 5.0923 8.92676C5.21841 8.92676 5.33935 8.87665 5.42852 8.78746V8.78794ZM6.94924 6.33007C6.86287 6.29549 6.76827 6.28703 6.67714 6.30573C6.58602 6.32442 6.50238 6.36946 6.4366 6.43525C6.37083 6.50104 6.3258 6.58469 6.30711 6.67583C6.28842 6.76698 6.29688 6.8616 6.33145 6.94798L8.23234 11.7012C8.2664 11.7862 8.32432 11.8596 8.39912 11.9126C8.47393 11.9655 8.56243 11.9956 8.65397 11.9994C8.74551 12.0032 8.83619 11.9804 8.91509 11.9338C8.99399 11.8872 9.05774 11.8188 9.09867 11.7368L9.75448 10.4254L11.1887 11.8609C11.2779 11.95 11.3988 12 11.5248 12C11.6509 12 11.7718 11.9498 11.8609 11.8606C11.95 11.7714 12 11.6505 12 11.5244C12 11.3983 11.9498 11.2774 11.8607 11.1883L10.426 9.75284L11.7376 9.09737C11.8194 9.05633 11.8876 8.99254 11.9341 8.91365C11.9805 8.83477 12.0032 8.74415 11.9994 8.65268C11.9955 8.56122 11.9654 8.4728 11.9126 8.39806C11.8597 8.32331 11.7864 8.26542 11.7015 8.23134L6.94924 6.33007Z" fill="#06B6D4"/>
</svg>
