<svg width="132" height="47" viewBox="0 0 132 47" fill="none" xmlns="http://www.w3.org/2000/svg">
<path d="M17.12 33C16.1173 33 15.3493 32.744 14.816 32.232C14.304 31.6987 14.048 30.9413 14.048 29.96V13.48C14.048 12.4987 14.304 11.752 14.816 11.24C15.3493 10.7067 16.1173 10.44 17.12 10.44H24.928C26.5493 10.44 27.9253 10.6853 29.056 11.176C30.208 11.6453 31.0827 12.3173 31.68 13.192C32.2773 14.0667 32.576 15.0907 32.576 16.264C32.576 17.5867 32.192 18.7173 31.424 19.656C30.6773 20.5947 29.6533 21.2347 28.352 21.576V21.064C29.888 21.3413 31.072 21.96 31.904 22.92C32.7573 23.88 33.184 25.1067 33.184 26.6C33.184 28.584 32.4693 30.152 31.04 31.304C29.632 32.4347 27.7013 33 25.248 33H17.12ZM19.68 28.68H24.448C25.536 28.68 26.3253 28.4773 26.816 28.072C27.328 27.6453 27.584 27.016 27.584 26.184C27.584 25.352 27.328 24.7333 26.816 24.328C26.3253 23.9227 25.536 23.72 24.448 23.72H19.68V28.68ZM19.68 19.4H23.872C24.9387 19.4 25.7173 19.208 26.208 18.824C26.72 18.44 26.976 17.8533 26.976 17.064C26.976 16.2747 26.72 15.6987 26.208 15.336C25.7173 14.952 24.9387 14.76 23.872 14.76H19.68V19.4ZM47.3968 33.352C45.1141 33.352 43.1088 32.872 41.3808 31.912C39.6528 30.9307 38.3088 29.5653 37.3488 27.816C36.4101 26.0667 35.9408 24.0293 35.9408 21.704C35.9408 19.9547 36.2074 18.3653 36.7408 16.936C37.2954 15.5067 38.0741 14.28 39.0768 13.256C40.1008 12.232 41.3168 11.4533 42.7248 10.92C44.1328 10.3653 45.6901 10.088 47.3968 10.088C49.6794 10.088 51.6741 10.568 53.3808 11.528C55.1088 12.488 56.4528 13.8427 57.4128 15.592C58.3728 17.32 58.8528 19.3573 58.8528 21.704C58.8528 23.4533 58.5754 25.0427 58.0208 26.472C57.4874 27.9013 56.7088 29.1387 55.6848 30.184C54.6821 31.208 53.4768 31.9973 52.0688 32.552C50.6608 33.0853 49.1034 33.352 47.3968 33.352ZM47.3968 28.424C48.5274 28.424 49.4874 28.1573 50.2768 27.624C51.0661 27.0907 51.6741 26.3227 52.1007 25.32C52.5274 24.3173 52.7408 23.112 52.7408 21.704C52.7408 19.592 52.2714 17.9493 51.3328 16.776C50.3941 15.6027 49.0821 15.016 47.3968 15.016C46.2874 15.016 45.3274 15.2827 44.5168 15.816C43.7274 16.328 43.1194 17.0853 42.6927 18.088C42.2661 19.0693 42.0528 20.2747 42.0528 21.704C42.0528 23.816 42.5221 25.4693 43.4608 26.664C44.3994 27.8373 45.7114 28.424 47.3968 28.424ZM62.8228 33.288C62.1614 33.288 61.6068 33.1387 61.1588 32.84C60.7108 32.52 60.4334 32.0933 60.3268 31.56C60.2201 31.0053 60.3161 30.3867 60.6148 29.704L68.5828 12.552C68.9668 11.72 69.4361 11.112 69.9908 10.728C70.5668 10.344 71.2174 10.152 71.9428 10.152C72.6681 10.152 73.2974 10.344 73.8308 10.728C74.3854 11.112 74.8654 11.72 75.2708 12.552L83.2388 29.704C83.5801 30.3867 83.6974 31.0053 83.5908 31.56C83.5054 32.1147 83.2388 32.5413 82.7908 32.84C82.3641 33.1387 81.8308 33.288 81.1908 33.288C80.3374 33.288 79.6761 33.096 79.2068 32.712C78.7588 32.328 78.3534 31.7093 77.9908 30.856L76.2628 26.792L78.5028 28.424H65.3188L67.5908 26.792L65.8628 30.856C65.4788 31.7093 65.0841 32.328 64.6788 32.712C64.2734 33.096 63.6548 33.288 62.8228 33.288ZM71.8788 16.584L68.1667 25.448L67.2708 23.912H76.5828L75.6868 25.448L71.9428 16.584H71.8788ZM89.117 33.288C88.1783 33.288 87.453 33.032 86.941 32.52C86.429 31.9867 86.173 31.2507 86.173 30.312V13.416C86.173 12.456 86.429 11.72 86.941 11.208C87.4743 10.696 88.2103 10.44 89.149 10.44H97.021C99.581 10.44 101.554 11.0693 102.941 12.328C104.349 13.5653 105.053 15.2933 105.053 17.512C105.053 18.9413 104.733 20.1893 104.093 21.256C103.474 22.3013 102.568 23.112 101.373 23.688C100.2 24.2427 98.749 24.52 97.021 24.52L97.277 23.944H98.813C99.7303 23.944 100.541 24.168 101.245 24.616C101.949 25.0427 102.536 25.704 103.005 26.6L104.605 29.48C104.946 30.0987 105.106 30.7067 105.085 31.304C105.064 31.88 104.829 32.36 104.381 32.744C103.954 33.1067 103.325 33.288 102.493 33.288C101.661 33.288 100.978 33.1173 100.445 32.776C99.933 32.4347 99.4743 31.9013 99.069 31.176L96.157 25.832C95.901 25.3627 95.5703 25.0427 95.165 24.872C94.781 24.68 94.333 24.584 93.821 24.584H92.061V30.312C92.061 31.2507 91.8157 31.9867 91.325 32.52C90.8343 33.032 90.0983 33.288 89.117 33.288ZM92.061 20.424H95.965C97.0957 20.424 97.9597 20.2 98.557 19.752C99.1543 19.304 99.453 18.6107 99.453 17.672C99.453 16.776 99.1543 16.104 98.557 15.656C97.9597 15.1867 97.0957 14.952 95.965 14.952H92.061V20.424ZM111.839 33C110.836 33 110.068 32.744 109.535 32.232C109.023 31.6987 108.767 30.9413 108.767 29.96V13.48C108.767 12.4987 109.023 11.752 109.535 11.24C110.068 10.7067 110.836 10.44 111.839 10.44H118.111C122.036 10.44 125.065 11.4213 127.199 13.384C129.353 15.3467 130.431 18.12 130.431 21.704C130.431 23.496 130.153 25.096 129.599 26.504C129.044 27.8907 128.244 29.0747 127.199 30.056C126.153 31.016 124.863 31.752 123.327 32.264C121.812 32.7547 120.073 33 118.111 33H111.839ZM114.655 28.232H117.727C118.857 28.232 119.828 28.0933 120.639 27.816C121.471 27.5387 122.153 27.1333 122.687 26.6C123.241 26.0667 123.647 25.3947 123.903 24.584C124.18 23.7733 124.319 22.8133 124.319 21.704C124.319 19.4853 123.775 17.8533 122.687 16.808C121.599 15.7413 119.945 15.208 117.727 15.208H114.655V28.232Z" fill="#020617"/>
<path fill-rule="evenodd" clip-rule="evenodd" d="M8.34003 24.3887C8.25416 24.0685 8.0446 23.7955 7.75743 23.6297C7.47027 23.464 7.12902 23.4191 6.80878 23.505C6.48853 23.5909 6.2155 23.8004 6.04977 24.0876C5.88403 24.3748 5.83916 24.716 5.92503 25.0362L6.24878 26.2437C6.33464 26.564 6.54421 26.837 6.83137 27.0027C7.11854 27.1685 7.45978 27.2134 7.78003 27.1275C8.10027 27.0416 8.3733 26.8321 8.53903 26.5449C8.70477 26.2577 8.74964 25.9165 8.66378 25.5962L8.34003 24.3887ZM3.03628 27.925C2.87743 27.8817 2.71159 27.8702 2.54829 27.8912C2.38499 27.9121 2.22744 27.9652 2.08469 28.0472C1.94194 28.1292 1.8168 28.2387 1.71647 28.3692C1.61613 28.4997 1.54257 28.6488 1.50001 28.8079C1.45745 28.9669 1.44672 29.1328 1.46846 29.296C1.49019 29.4592 1.54395 29.6165 1.62665 29.7589C1.70935 29.9012 1.81936 30.0259 1.95037 30.1256C2.08137 30.2253 2.23078 30.2982 2.39003 30.34L3.59753 30.6637C3.9172 30.7477 4.25711 30.7016 4.5429 30.5356C4.82869 30.3696 5.03709 30.0971 5.12253 29.7779C5.20797 29.4586 5.16348 29.1185 4.9988 28.8319C4.83412 28.5453 4.56265 28.3357 4.24378 28.2487L3.03628 27.925ZM14.0538 27.2137C14.1698 27.0976 14.2619 26.9597 14.3247 26.808C14.3874 26.6563 14.4197 26.4937 14.4197 26.3296C14.4196 26.1654 14.3872 26.0028 14.3243 25.8511C14.2614 25.6995 14.1693 25.5617 14.0532 25.4456C13.937 25.3296 13.7992 25.2375 13.6474 25.1747C13.4957 25.112 13.3331 25.0797 13.169 25.0797C13.0048 25.0798 12.8422 25.1122 12.6905 25.1751C12.5389 25.238 12.4011 25.3301 12.285 25.4462L11.4013 26.33C11.2851 26.4461 11.193 26.584 11.1302 26.7357C11.0673 26.8875 11.035 27.0501 11.035 27.2144C11.035 27.3786 11.0673 27.5412 11.1302 27.693C11.193 27.8447 11.2851 27.9826 11.4013 28.0987C11.5174 28.2149 11.6553 28.307 11.807 28.3699C11.9588 28.4327 12.1214 28.4651 12.2856 28.4651C12.4499 28.4651 12.6125 28.4327 12.7643 28.3699C12.916 28.307 13.0539 28.2149 13.17 28.0987L14.0538 27.2137ZM5.21503 36.0537L6.09878 35.17C6.33349 34.9356 6.46549 34.6176 6.46572 34.2859C6.46596 33.9542 6.33441 33.636 6.10003 33.4012C5.86564 33.1665 5.54761 33.0345 5.21591 33.0343C4.8842 33.0341 4.56599 33.1656 4.33128 33.4L3.44628 34.2837C3.21173 34.5183 3.07996 34.8364 3.07996 35.1681C3.07996 35.4998 3.21173 35.8179 3.44628 36.0525C3.68083 36.287 3.99895 36.4188 4.33065 36.4188C4.66236 36.4188 4.98047 36.287 5.21503 36.0525V36.0537ZM9.21503 29.59C8.98787 29.4991 8.73901 29.4768 8.49932 29.526C8.25963 29.5751 8.03964 29.6936 7.86663 29.8666C7.69361 30.0396 7.57518 30.2596 7.52601 30.4993C7.47684 30.739 7.4991 30.9878 7.59003 31.215L12.59 43.715C12.6796 43.9387 12.832 44.1318 13.0287 44.2709C13.2255 44.4101 13.4583 44.4894 13.6991 44.4993C13.9399 44.5092 14.1784 44.4493 14.3859 44.3267C14.5934 44.2042 14.7611 44.0244 14.8688 43.8087L16.5938 40.36L20.3663 44.135C20.6008 44.3694 20.9189 44.501 21.2505 44.5009C21.5821 44.5008 21.9 44.3689 22.1344 44.1344C22.3688 43.8998 22.5004 43.5818 22.5003 43.2502C22.5002 42.9186 22.3683 42.6006 22.1338 42.3662L18.36 38.5912L21.81 36.8675C22.0252 36.7596 22.2047 36.5918 22.3268 36.3843C22.449 36.1769 22.5086 35.9386 22.4986 35.698C22.4885 35.4575 22.4093 35.225 22.2703 35.0284C22.1313 34.8319 21.9385 34.6796 21.715 34.59L9.21503 29.59Z" fill="#06B6D4"/>
</svg>
