<svg width="800" height="427" viewBox="0 0 800 427" fill="none" xmlns="http://www.w3.org/2000/svg">
<g clip-path="url(#clip0_1_18)">
<path d="M37.4186 425.124L37.5845 424.249C37.6213 424.057 41.3978 404.894 55.5543 393.774C69.7115 382.653 89.2237 383.524 89.4187 383.534L90.3084 383.58L90.1425 384.454C90.1056 384.647 86.3291 403.81 72.1726 414.93C58.0154 426.05 38.5033 425.18 38.3082 425.17L37.4186 425.124ZM56.5143 394.996C44.5449 404.398 40.235 419.77 39.3127 423.636C43.2878 423.653 59.2547 423.1 71.2126 413.707C83.1691 404.315 87.4884 388.935 88.4142 385.068C84.4368 385.051 68.4715 385.604 56.5143 394.996Z" fill="#F1F1F1"/>
<path d="M62.1442 399.26C55.659 415.965 38.5868 424.92 38.5868 424.92C38.5868 424.92 32.0292 406.791 38.5143 390.086C44.9995 373.382 62.0716 364.427 62.0716 364.427C62.0716 364.427 68.6293 382.556 62.1442 399.26Z" fill="#F1F1F1"/>
<path d="M776.517 425.17C776.322 425.18 756.81 426.05 742.653 414.93C728.496 403.81 724.72 384.647 724.683 384.454L724.517 383.58L725.407 383.534C725.602 383.524 745.114 382.653 759.271 393.774C773.428 404.894 777.204 424.057 777.241 424.249L777.407 425.124L776.517 425.17ZM726.411 385.068C727.337 388.935 731.656 404.315 743.613 413.707C755.571 423.1 771.538 423.653 775.513 423.636C774.59 419.77 770.281 404.398 758.311 394.996C746.354 385.604 730.388 385.051 726.411 385.068Z" fill="#F1F1F1"/>
<path d="M752.681 399.26C759.166 415.965 776.239 424.92 776.239 424.92C776.239 424.92 782.796 406.791 776.311 390.086C769.826 373.382 752.754 364.427 752.754 364.427C752.754 364.427 746.196 382.556 752.681 399.26Z" fill="#F1F1F1"/>
<path d="M458.522 421.13L447.183 416.356L439.405 359.515H335.823L327.392 416.123L317.248 421.195C316.763 421.438 316.374 421.838 316.144 422.329C315.914 422.821 315.856 423.375 315.981 423.904C316.106 424.432 316.405 424.902 316.831 425.239C317.256 425.576 317.783 425.759 318.325 425.759H457.587C458.143 425.759 458.682 425.567 459.113 425.214C459.543 424.862 459.839 424.372 459.949 423.827C460.059 423.282 459.977 422.715 459.717 422.224C459.457 421.732 459.034 421.346 458.522 421.13Z" fill="#E6E6E6"/>
<path d="M642.593 367.077H133.772C131.102 367.071 128.544 366.007 126.658 364.117C124.773 362.227 123.714 359.666 123.714 356.997V285.246H652.651V356.997C652.651 359.666 651.592 362.227 649.707 364.117C647.821 366.007 645.263 367.071 642.593 367.077Z" fill="#CCCCCC"/>
<path d="M653.183 319.157H123.249V12.152C123.253 8.93018 124.535 5.84137 126.813 3.56321C129.091 1.28506 132.18 0.00361888 135.402 7.62939e-06H641.031C644.253 0.00361676 647.341 1.28505 649.62 3.5632C651.898 5.84135 653.18 8.93017 653.183 12.152V319.157Z" fill="#3F3D56"/>
<path d="M621.532 296.875H154.9C152.416 296.872 150.035 295.884 148.279 294.128C146.522 292.371 145.534 289.99 145.532 287.506V31.6509C145.534 29.167 146.522 26.7856 148.279 25.0292C150.035 23.2728 152.416 22.2848 154.9 22.2819H621.532C624.016 22.2848 626.398 23.2728 628.154 25.0292C629.91 26.7856 630.898 29.167 630.901 31.6509V287.506C630.898 289.99 629.91 292.371 628.154 294.128C626.398 295.884 624.016 296.872 621.532 296.875Z" fill="white"/>
<path d="M798.814 426.352H1.23395C0.965357 426.358 0.702417 426.274 0.486104 426.115C0.26979 425.956 0.112251 425.729 0.0380339 425.471C-0.00830073 425.295 -0.0136938 425.111 0.0222647 424.933C0.0582232 424.755 0.134572 424.587 0.245446 424.443C0.35632 424.299 0.498758 424.183 0.6618 424.102C0.824841 424.022 1.00414 423.98 1.1859 423.98H798.717C799 423.97 799.279 424.056 799.507 424.225C799.735 424.393 799.899 424.634 799.973 424.908C800.011 425.081 800.01 425.261 799.97 425.434C799.929 425.607 799.851 425.769 799.74 425.908C799.628 426.046 799.488 426.158 799.327 426.235C799.167 426.312 798.992 426.352 798.814 426.352Z" fill="#CCCCCC"/>
<path d="M247.397 119.043H170.621V126.253H247.397V119.043Z" fill="#E5E5E5"/>
<path d="M247.397 136.529H170.621V143.739H247.397V136.529Z" fill="#E5E5E5"/>
<path d="M247.397 154.4H170.621V161.61H247.397V154.4Z" fill="#E5E5E5"/>
<path d="M247.397 172.272H170.621V179.482H247.397V172.272Z" fill="#E5E5E5"/>
<path d="M229.212 194.982H188.806V201.239H229.212V194.982Z" fill="#06B6D4"/>
<path d="M366.864 163.762H366.13V165.964H366.864V163.762Z" fill="#E5E5E5"/>
<path d="M366.864 212.889H366.13V208.197H366.864V212.889ZM366.864 203.504H366.13V198.812H366.864V203.504ZM366.864 194.119H366.13V189.427H366.864V194.119ZM366.864 184.734H366.13V180.042H366.864V184.734ZM366.864 175.349H366.13V170.657H366.864V175.349Z" fill="#E5E5E5"/>
<path d="M366.864 217.582H366.13V219.784H366.864V217.582Z" fill="#E5E5E5"/>
<path d="M447.251 163.762H446.517V165.964H447.251V163.762Z" fill="#E5E5E5"/>
<path d="M447.251 212.889H446.517V208.197H447.251V212.889ZM447.251 203.504H446.517V198.812H447.251V203.504ZM447.251 194.119H446.517V189.427H447.251V194.119ZM447.251 184.734H446.517V180.042H447.251V184.734ZM447.251 175.349H446.517V170.657H447.251V175.349Z" fill="#E5E5E5"/>
<path d="M447.251 217.582H446.517V219.784H447.251V217.582Z" fill="#E5E5E5"/>
<path d="M487.8 120.677H487.066V122.88H487.8V120.677Z" fill="#E5E5E5"/>
<path d="M487.8 213.072H487.066V208.563H487.8V213.072ZM487.8 204.053H487.066V199.543H487.8V204.053ZM487.8 195.034H487.066V190.524H487.8V195.034ZM487.8 186.015H487.066V181.505H487.8V186.015ZM487.8 176.995H487.066V172.486H487.8V176.995ZM487.8 167.976H487.066V163.466H487.8V167.976ZM487.8 158.957H487.066V154.447H487.8V158.957ZM487.8 149.938H487.066V145.428H487.8V149.938ZM487.8 140.918H487.066V136.409H487.8V140.918ZM487.8 131.899H487.066V127.389H487.8V131.899Z" fill="#E5E5E5"/>
<path d="M487.8 217.582H487.066V219.784H487.8V217.582Z" fill="#E5E5E5"/>
<path d="M527.945 103.058H527.211V105.261H527.945V103.058Z" fill="#E5E5E5"/>
<path d="M527.945 213.089H527.211V208.596H527.945V213.089ZM527.945 204.104H527.211V199.611H527.945V204.104ZM527.945 195.118H527.211V190.625H527.945V195.118ZM527.945 186.132H527.211V181.639H527.945V186.132ZM527.945 177.146H527.211V172.653H527.945V177.146ZM527.945 168.161H527.211V163.668H527.945V168.161ZM527.945 159.175H527.211V154.682H527.945V159.175ZM527.945 150.189H527.211V145.696H527.945V150.189ZM527.945 141.204H527.211V136.711H527.945V141.204ZM527.945 132.218H527.211V127.725H527.945V132.218ZM527.945 123.232H527.211V118.739H527.945V123.232ZM527.945 114.247H527.211V109.754H527.945V114.247Z" fill="#E5E5E5"/>
<path d="M527.945 217.582H527.211V219.784H527.945V217.582Z" fill="#E5E5E5"/>
<path d="M407.241 134.259H406.507V136.461H407.241V134.259Z" fill="#E5E5E5"/>
<path d="M407.241 213.313H406.507V209.043H407.241V213.313ZM407.241 204.773H406.507V200.504H407.241V204.773ZM407.241 196.234H406.507V191.965H407.241V196.234ZM407.241 187.695H406.507V183.426H407.241V187.695ZM407.241 179.156H406.507V174.887H407.241V179.156ZM407.241 170.617H406.507V166.348H407.241V170.617ZM407.241 162.078H406.507V157.809H407.241V162.078ZM407.241 153.539H406.507V149.27H407.241V153.539ZM407.241 145H406.507V140.731H407.241V145Z" fill="#E5E5E5"/>
<path d="M407.241 217.582H406.507V219.784H407.241V217.582Z" fill="#E5E5E5"/>
<path d="M568.663 220.807H325.623C325.421 220.807 325.227 220.727 325.085 220.584C324.942 220.442 324.862 220.248 324.862 220.046V103.557C324.862 103.356 324.942 103.162 325.085 103.019C325.227 102.877 325.421 102.797 325.623 102.797C325.824 102.797 326.018 102.877 326.16 103.019C326.303 103.162 326.383 103.356 326.383 103.557V219.286H568.663C568.864 219.286 569.058 219.366 569.2 219.508C569.343 219.651 569.423 219.845 569.423 220.046C569.423 220.248 569.343 220.442 569.2 220.584C569.058 220.727 568.864 220.807 568.663 220.807Z" fill="#3F3D56"/>
<path d="M447.218 164.784L406.809 134.518L366.953 164.37L366.041 163.153L406.809 132.617L447.025 162.739L486.988 119.006L487.149 118.941L527.461 102.698L528.029 104.11L487.878 120.287L447.218 164.784Z" fill="#3F3D56"/>
<path d="M366.497 168.325C369.017 168.325 371.061 166.282 371.061 163.762C371.061 161.241 369.017 159.198 366.497 159.198C363.977 159.198 361.933 161.241 361.933 163.762C361.933 166.282 363.977 168.325 366.497 168.325Z" fill="#06B6D4"/>
<path d="M406.809 138.662C409.329 138.662 411.373 136.618 411.373 134.098C411.373 131.578 409.329 129.534 406.809 129.534C404.289 129.534 402.245 131.578 402.245 134.098C402.245 136.618 404.289 138.662 406.809 138.662Z" fill="#06B6D4"/>
<path d="M447.121 168.325C449.641 168.325 451.685 166.282 451.685 163.762C451.685 161.241 449.641 159.198 447.121 159.198C444.601 159.198 442.557 161.241 442.557 163.762C442.557 166.282 444.601 168.325 447.121 168.325Z" fill="#06B6D4"/>
<path d="M487.433 124.21C489.953 124.21 491.997 122.167 491.997 119.647C491.997 117.126 489.953 115.083 487.433 115.083C484.913 115.083 482.869 117.126 482.869 119.647C482.869 122.167 484.913 124.21 487.433 124.21Z" fill="#06B6D4"/>
<path d="M527.745 107.477C530.266 107.477 532.309 105.434 532.309 102.913C532.309 100.393 530.266 98.3497 527.745 98.3497C525.225 98.3497 523.182 100.393 523.182 102.913C523.182 105.434 525.225 107.477 527.745 107.477Z" fill="#06B6D4"/>
<path d="M271.393 22.2817H269.839V296.875H271.393V22.2817Z" fill="#E5E5E5"/>
<path d="M637.761 294.065C638.298 293.426 638.688 292.677 638.904 291.871C639.12 291.065 639.157 290.221 639.012 289.4C638.866 288.578 638.543 287.798 638.063 287.115C637.584 286.432 636.961 285.862 636.238 285.446L640.031 265.521L630.302 269.575L628.191 287.875C627.573 289.137 627.438 290.581 627.813 291.935C628.189 293.289 629.048 294.458 630.227 295.221C631.407 295.984 632.825 296.287 634.214 296.074C635.603 295.861 636.865 295.146 637.761 294.065Z" fill="#FFB7B7"/>
<path d="M686.272 416.33H678.034L674.115 384.554L686.274 384.555L686.272 416.33Z" fill="#FFB7B7"/>
<path d="M688.373 424.316L661.81 424.315V423.979C661.81 421.237 662.899 418.607 664.838 416.668C666.777 414.729 669.407 413.64 672.149 413.64L688.373 413.641L688.373 424.316Z" fill="#2F2E41"/>
<path d="M641.251 416.33H633.013L629.094 384.554L641.253 384.555L641.251 416.33Z" fill="#FFB7B7"/>
<path d="M641.336 424.316L614.773 424.315V423.979C614.773 421.237 615.862 418.607 617.801 416.668C619.74 414.729 622.37 413.64 625.112 413.64L641.336 413.641L641.336 424.316Z" fill="#2F2E41"/>
<path d="M640.576 282.126L632.513 300.702L625.86 407.476L642.66 406.804L647.248 355.905L661.401 310.57L669.538 361.111L672.898 405.46L686.798 406.062L692.337 282.126H640.576Z" fill="#2F2E41"/>
<path d="M680.883 190.46L657.512 191.045L643.791 198.089L643.038 250.056L634.48 285.935C634.48 285.935 687.949 289.615 695.34 284.239L686.605 243.25L698.321 198.952L680.883 190.46Z" fill="#06B6D4"/>
<path d="M646.287 198.901L643.791 198.089C643.791 198.089 635.872 203.171 636.625 215.458C636.625 215.458 636.329 221.816 636.612 226.048C636.937 230.901 627.205 279.132 627.205 279.132H641.316L647.363 235.455L646.287 198.901Z" fill="#06B6D4"/>
<path d="M697.955 294.736C697.418 294.098 697.028 293.349 696.812 292.543C696.596 291.737 696.559 290.893 696.705 290.072C696.85 289.25 697.174 288.47 697.653 287.787C698.132 287.104 698.755 286.534 699.479 286.118L695.685 266.193L705.414 270.247L707.525 288.547C708.144 289.809 708.278 291.253 707.903 292.607C707.527 293.961 706.669 295.13 705.489 295.893C704.309 296.655 702.891 296.959 701.502 296.746C700.114 296.533 698.851 295.818 697.955 294.736Z" fill="#FFB7B7"/>
<path d="M694.804 199.573L697.301 198.761C697.301 198.761 705.22 203.843 704.466 216.13C704.466 216.13 704.763 222.488 704.48 226.72C704.155 231.573 708.511 279.804 708.511 279.804H694.4L688.353 236.127L694.804 199.573Z" fill="#06B6D4"/>
<path d="M686.62 168.658C686.62 171.862 685.669 174.994 683.889 177.658C682.109 180.323 679.579 182.399 676.618 183.625C673.658 184.852 670.401 185.172 667.258 184.547C664.115 183.922 661.229 182.379 658.963 180.113C656.697 177.848 655.154 174.961 654.529 171.818C653.904 168.676 654.225 165.418 655.451 162.458C656.677 159.498 658.754 156.967 661.418 155.187C664.082 153.407 667.214 152.457 670.419 152.457C672.541 152.451 674.643 152.864 676.606 153.671C678.569 154.479 680.353 155.665 681.858 157.162C683.362 158.658 684.557 160.437 685.374 162.396C686.191 164.354 686.614 166.455 686.62 168.577C686.62 168.604 686.62 168.631 686.62 168.658Z" fill="#FFB7B7"/>
<path d="M654.272 146.897C656.169 142.816 659.842 143.623 663.054 145.006C667.122 144.104 670.99 141.403 675.373 143C679.69 149.279 694.184 147.432 691.1 157.654C691.096 160.103 695.709 158.677 694.904 162.689C697.348 170.409 686.083 185.03 679.617 181.951C681.216 179.02 684.869 172.363 679.328 171.702C667.408 182.793 678.098 150.582 663.121 159.95C658.162 164.488 651.373 151.436 654.272 146.897Z" fill="#2F2E41"/>
</g>
<defs>
<clipPath id="clip0_1_18">
<rect width="800" height="426.352" fill="white"/>
</clipPath>
</defs>
</svg>
